<svg xmlns="http://www.w3.org/2000/svg" fill="none" viewBox="0 0 16 16">
  <g clip-path="url(#a)">
    <path fill="#F0DB4F" d="M0 0h16v16H0z"/>
    <path fill="#323330" d="M14.69 12.184c-.117-.73-.593-1.343-2.002-1.915-.49-.225-1.036-.386-1.199-.757-.058-.216-.065-.338-.029-.469.105-.424.611-.556 1.013-.435.259.087.503.286.651.604.69-.447.689-.444 1.171-.751-.176-.274-.27-.4-.386-.517-.416-.464-.981-.703-1.886-.685l-.472.061c-.451.114-.882.351-1.134.67-.758.859-.542 2.363.38 2.982.908.681 2.242.836 2.412 1.474.166.78-.573 1.032-1.308.943-.541-.113-.842-.388-1.168-.889l-1.215.701c.146.32.3.464.544.741 1.16 1.176 4.06 1.118 4.58-.661.021-.061.161-.469.049-1.097m-5.992-4.83H7.202c0 1.292-.007 2.576-.007 3.869 0 .823.043 1.577-.09 1.808-.22.455-.787.399-1.046.31-.263-.129-.397-.313-.552-.573a.7.7 0 0 0-.085-.137l-1.217.745c.203.416.5.776.882 1.01.57.343 1.337.447 2.139.263.522-.152.972-.466 1.207-.946.341-.628.268-1.388.265-2.23.008-1.371 0-2.743 0-4.12"/>
  </g>
  <defs>
    <clipPath id="a">
      <path fill="#fff" d="M0 0h16v16H0z"/>
    </clipPath>
  </defs>
</svg>
